<?xml version="1.0" encoding="utf-8"?>
<!-- Generator: Adobe Illustrator 24.0.0, SVG Export Plug-In . SVG Version: 6.00 Build 0)  -->
<svg version="1.1" id="Livello_1" xmlns="http://www.w3.org/2000/svg" xmlns:xlink="http://www.w3.org/1999/xlink" x="0px" y="0px"
	 viewBox="0 0 51.1 52.7" style="enable-background:new 0 0 51.1 52.7;" xml:space="preserve">
<style type="text/css">
	.st0{fill-rule:evenodd;clip-rule:evenodd;fill:#F94646;}
	.st1{fill-rule:evenodd;clip-rule:evenodd;fill:#FFFFFF;}
	.st2{fill:#F94646;}
	.st3{font-family:'FranklinGothicCondensed';}
	.st4{font-size:26px;}
</style>
<ellipse class="st0" cx="25.5" cy="26.6" rx="23.5" ry="24.2"/>
<path class="st1" d="M24,11.3C34.9,9.7,43,16.1,43.3,26.6c0,9.8-9.7,16.5-18.8,16.5c-9.2,0-16.8-6.2-16.8-15.7
	c-0.1-5.4,2.7-9.7,6.9-12.5c-1.5,0-3,0.1-4.5,0.4c-0.6,0.1-0.6,0-0.1-0.8c1.7-2.4,4.2-3.3,6.8-2.8L14,9.3l2.3-1.9l2.5,3.7
	c1-2.4,4.2-4.2,6.5-2.4c0.2,0.2,0.3,0.2,0.3,0.3c0,0.3-0.3,0.1-0.6,0.3c-0.8,0.4-1.1,1.1-1.1,2L24,11.3"/>
<path class="st0" d="M38.7,27h-4.1v11.1H30V27h-4.1v-4.5h12.8V27"/>
<text transform="matrix(1 0 0 1 13.1944 35.3007)" class="st2 st3 st4">G</text>
</svg>
