<?xml version="1.0" encoding="utf-8"?>
<!-- Generator: Adobe Illustrator 24.0.0, SVG Export Plug-In . SVG Version: 6.00 Build 0)  -->
<svg version="1.1" id="Livello_1" xmlns="http://www.w3.org/2000/svg" xmlns:xlink="http://www.w3.org/1999/xlink" x="0px" y="0px"
	 viewBox="0 0 41.2 39.9" style="enable-background:new 0 0 41.2 39.9;" xml:space="preserve">
<style type="text/css">
	.st0{fill:#606161;}
	.st1{fill-rule:evenodd;clip-rule:evenodd;fill:#606161;}
</style>
<g id="ps5_logo">
	<path id="ps5" class="st0" d="M39.2,39.3h-0.1v-0.8h-0.3v-0.1h0.7v0.1h-0.3L39.2,39.3z M40,39.1L40,39.1l0.3-0.7h0.2v0.9h-0.1v-0.8
		l0,0l-0.3,0.8H40l-0.3-0.8l0,0v0.8h-0.1v-0.9h0.2L40,39.1z M37.6,31.2H26.2v3.1c0,0,0,1.2,1.4,1.2h7c0.3,0,0.5,0.1,0.8,0.2
		c0.4,0.2,0.8,0.5,0.8,1.2c0,0.6-0.3,1-0.6,1.2c-0.3,0.2-0.6,0.3-0.9,0.2h-8.6v0.9h9.6c0,0,2.2-0.1,2.2-2.3c0-1.1-0.7-1.7-1.3-2
		c-0.4-0.2-0.8-0.3-1.2-0.3h-6.9c-0.1,0-0.2,0-0.3-0.1c-0.1-0.1-0.3-0.2-0.3-0.6v-2h9.8V31.2z M11.8,38.4v0.9h4.9
		c0.6,0,1.1-0.2,1.6-0.6c0.5-0.4,0.7-1,0.7-1.6v-3.7c0-0.4,0.2-0.8,0.5-1.1c0.2-0.2,0.5-0.3,0.8-0.3h4.2v-0.9h-5c0,0-2.2,0-2.2,2.3
		V37c0,0.3-0.1,0.6-0.2,0.8c-0.2,0.4-0.6,0.6-1,0.6L11.8,38.4z M0.5,31.2v0.9h8.7c0.2,0,0.5,0,0.7,0.1c0.3,0.2,0.7,0.5,0.7,1.2
		c0,0.7-0.4,1-0.7,1.1c-0.2,0.1-0.5,0.2-0.7,0.2H2.8c-0.4,0-0.8,0.1-1.1,0.2c-0.5,0.3-1.1,0.9-1.1,1.9v2.4h1.7v-2.4
		c0-0.2,0-0.3,0.1-0.4c0.1-0.4,0.5-0.9,1.3-0.9h6.5c0.2,0,0.4,0,0.6-0.1c0.6-0.2,1.6-0.7,1.6-2c0-2.1-2.1-2.2-2.1-2.2H0.5z"/>
</g>
<path id="ps_logo" class="st1" d="M4.4,24.5C1.5,23.7,1,22,2.3,21c1.2-0.9,3.2-1.6,3.2-1.6l8.4-3v3.4l-6.1,2.2
	c-1.1,0.4-1.2,0.9-0.4,1.2c0.9,0.3,2.4,0.2,3.5-0.2L14,22v3.1c-0.2,0-0.4,0.1-0.6,0.1C10.4,25.7,7.3,25.4,4.4,24.5z M22.1,24.8
	l9.5-3.4c1.1-0.4,1.2-0.9,0.4-1.2c-0.9-0.3-2.4-0.2-3.5,0.2l-6.3,2.2v-3.5l0.4-0.1c1.4-0.5,2.9-0.8,4.4-0.9c2.6-0.3,5.7,0,8.2,1
	c2.8,0.9,3.1,2.2,2.4,3.1C36.7,23,35,23.6,35,23.6l-12.8,4.6L22.1,24.8z M23.2,2.9c5,1.7,6.7,3.9,6.7,8.7c0,4.7-2.9,6.5-6.5,4.7V7.5
	c0-1-0.2-2-1.1-2.2C21.5,5,21,5.7,21,6.7v21.9l-5.9-1.9V0.6C17.6,1.1,21.3,2.2,23.2,2.9L23.2,2.9z M35.9,26.9c0,0.1,0,0.1-0.1,0.2
	c-0.1,0-0.1,0.1-0.2,0.1h-0.5v-0.5h0.5c0.1,0,0.1,0,0.2,0C35.9,26.7,35.9,26.8,35.9,26.9z M36.2,27.9C36.2,27.9,36.2,27.9,36.2,27.9
	c-0.1-0.1-0.1-0.2-0.1-0.2l0-0.2c0-0.1,0-0.2-0.1-0.2c0,0-0.1-0.1-0.1-0.1c0,0,0.1-0.1,0.1-0.1c0-0.1,0.1-0.2,0.1-0.3
	c0-0.2-0.1-0.3-0.2-0.4c-0.1,0-0.2-0.1-0.3-0.1h-0.8V28h0.3v-0.7h0.4c0.1,0,0.1,0,0.2,0c0.1,0,0.1,0.1,0.1,0.2l0,0.3
	c0,0,0,0.1,0,0.1c0,0,0,0,0,0.1l0,0L36.2,27.9L36.2,27.9L36.2,27.9z M34.3,27.2c0-0.3,0.1-0.6,0.4-0.9c0.5-0.5,1.2-0.5,1.7,0
	c0,0,0,0,0,0c0.5,0.5,0.5,1.3,0,1.8c-0.2,0.2-0.5,0.3-0.8,0.4c-0.3,0-0.6-0.1-0.9-0.4C34.4,27.9,34.3,27.6,34.3,27.2L34.3,27.2z
	 M35.5,28.7c0.4,0,0.8-0.2,1-0.4c0.6-0.6,0.6-1.5,0-2.1c-0.3-0.3-0.6-0.4-1-0.4c-0.8,0-1.5,0.7-1.5,1.5c0,0.4,0.2,0.7,0.4,1
	C34.7,28.6,35.1,28.7,35.5,28.7L35.5,28.7z"/>
</svg>
