<?xml version="1.0" encoding="utf-8"?>
<!-- Generator: Adobe Illustrator 24.0.0, SVG Export Plug-In . SVG Version: 6.00 Build 0)  -->
<svg version="1.1" id="Livello_1" xmlns="http://www.w3.org/2000/svg" xmlns:xlink="http://www.w3.org/1999/xlink" x="0px" y="0px"
	 viewBox="0 0 41.2 39.9" style="enable-background:new 0 0 41.2 39.9;" xml:space="preserve">
<style type="text/css">
	.st0{fill:#606161;}
	.st1{fill-rule:evenodd;clip-rule:evenodd;fill:#606161;}
</style>
<g id="ps5_logo">
	<path id="ps5" class="st0" d="M40.9,87h-0.1v-0.8h-0.3v-0.1h0.7v0.1h-0.3L40.9,87z M41.7,86.8L41.7,86.8l0.3-0.7h0.2V87H42v-0.8
		l0,0L41.7,87h-0.1l-0.3-0.8l0,0V87h-0.1v-0.9h0.2L41.7,86.8z M39.3,79H27.8v3.1c0,0,0,1.2,1.4,1.2h7c0.3,0,0.5,0.1,0.8,0.2
		c0.4,0.2,0.8,0.5,0.8,1.2c0,0.6-0.3,1-0.6,1.2c-0.3,0.2-0.6,0.3-0.9,0.2h-8.6V87h9.6c0,0,2.2-0.1,2.2-2.3c0-1.1-0.7-1.7-1.3-2
		c-0.4-0.2-0.8-0.3-1.2-0.3h-6.9c-0.1,0-0.2,0-0.3-0.1c-0.1-0.1-0.3-0.2-0.3-0.6v-2h9.8V79z M13.4,86.1V87h4.9
		c0.6,0,1.1-0.2,1.6-0.6c0.5-0.4,0.7-1,0.7-1.6v-3.7c0-0.4,0.2-0.8,0.5-1.1c0.2-0.2,0.5-0.3,0.8-0.3h4.2V79h-5c0,0-2.2,0-2.2,2.3
		v3.5c0,0.3-0.1,0.6-0.2,0.8c-0.2,0.4-0.6,0.6-1,0.6L13.4,86.1z M2.2,79v0.9h8.7c0.2,0,0.5,0,0.7,0.1c0.3,0.2,0.7,0.5,0.7,1.2
		c0,0.7-0.4,1-0.7,1.1c-0.2,0.1-0.5,0.2-0.7,0.2H4.4c-0.4,0-0.8,0.1-1.1,0.2c-0.5,0.3-1.1,0.9-1.1,1.9V87h1.7v-2.4
		c0-0.2,0-0.3,0.1-0.4c0.1-0.4,0.5-0.9,1.3-0.9h6.5c0.2,0,0.4,0,0.6-0.1c0.6-0.2,1.6-0.7,1.6-2c0-2.1-2.1-2.2-2.1-2.2H2.2z"/>
</g>
<path id="ps_logo" class="st1" d="M5.6,72.1c-2.9-0.8-3.4-2.5-2.1-3.5c1.2-0.9,3.3-1.6,3.3-1.6l8.5-3.1v3.5l-6.1,2.2
	c-1.1,0.4-1.3,0.9-0.4,1.2c0.9,0.3,2.5,0.2,3.6-0.2l2.9-1.1v3.1c-0.2,0-0.4,0.1-0.6,0.1C11.7,73.4,8.5,73.1,5.6,72.1z M23.6,72.5
	l9.6-3.4c1.1-0.4,1.3-0.9,0.4-1.2S31.1,67.6,30,68l-6.4,2.3v-3.6l0.4-0.1c1.4-0.5,2.9-0.8,4.4-0.9c2.6-0.3,5.8,0,8.3,1
	c2.8,0.9,3.1,2.2,2.4,3.1s-2.5,1.5-2.5,1.5l-13,4.7L23.6,72.5z M24.7,50.2c5,1.7,6.8,3.9,6.8,8.8c0,4.8-2.9,6.6-6.6,4.8v-8.9
	c0-1-0.2-2-1.2-2.3c-0.7-0.2-1.2,0.5-1.2,1.5v22.2l-6-1.9V48C19,48.4,22.7,49.6,24.7,50.2L24.7,50.2z M37.5,74.6
	c0,0.1,0,0.1-0.1,0.2c-0.1,0-0.1,0.1-0.2,0.1h-0.5v-0.5h0.5c0.1,0,0.1,0,0.2,0C37.5,74.4,37.5,74.5,37.5,74.6z M37.9,75.7
	C37.8,75.6,37.8,75.6,37.9,75.7c-0.1-0.1-0.1-0.2-0.1-0.2l0-0.2c0-0.1,0-0.2-0.1-0.2c0,0-0.1-0.1-0.1-0.1c0,0,0.1-0.1,0.1-0.1
	c0-0.1,0.1-0.2,0.1-0.3c0-0.2-0.1-0.3-0.2-0.4c-0.1,0-0.2-0.1-0.3-0.1h-0.8v1.7h0.3v-0.7h0.5c0.1,0,0.1,0,0.2,0
	c0.1,0,0.1,0.1,0.1,0.2l0,0.3c0,0,0,0.1,0,0.1c0,0,0,0,0,0.1l0,0L37.9,75.7L37.9,75.7L37.9,75.7z M35.9,75c0-0.3,0.1-0.7,0.4-0.9
	c0.5-0.5,1.2-0.5,1.7,0c0,0,0,0,0,0c0.5,0.5,0.5,1.3,0,1.8c-0.2,0.2-0.5,0.4-0.9,0.4c-0.3,0-0.6-0.1-0.9-0.4
	C36,75.6,35.9,75.3,35.9,75L35.9,75z M37.1,76.5c0.4,0,0.8-0.2,1-0.4c0.6-0.6,0.6-1.5,0-2.1c-0.3-0.3-0.7-0.4-1-0.4
	c-0.8,0-1.5,0.7-1.5,1.5c0,0.4,0.2,0.8,0.4,1C36.3,76.3,36.7,76.5,37.1,76.5L37.1,76.5z"/>
<g>
	<path class="st0" d="M20.6,0.9c-2.3,0-4.2,0.6-6,1.7c0,0,0,0,0,0.1c0,0,0,0,0.1,0c2.2-0.5,5.6,1.4,5.9,1.6h0h0
		c0.3-0.2,3.7-2.1,5.9-1.6c0,0,0.1,0,0.1,0c0,0,0-0.1,0-0.1C24.8,1.5,22.9,0.9,20.6,0.9z"/>
	<path class="st0" d="M28.2,4.1c-0.6,0-1.9,0.5-4.5,3.1l0,0c0,0,0,0,0,0c2.3,2.7,6.8,9.3,5.9,12v0.1c0,0,0.1,0,0.1,0
		c1.5-1.9,2.3-4.3,2.3-6.9c0-3.2-1.3-6-3.4-8.1c0,0,0,0-0.1,0C28.5,4.1,28.4,4.1,28.2,4.1z"/>
	<path class="st0" d="M12.9,4.1c-0.2,0-0.3,0-0.4,0.1c0,0,0,0-0.1,0c-2.1,2.1-3.4,5-3.4,8.1c0,2.6,0.9,5,2.3,6.9c0,0,0,0,0.1,0
		s0,0,0-0.1c-0.9-2.7,3.6-9.2,5.9-12l0,0c0,0,0,0,0,0C14.8,4.6,13.5,4.1,12.9,4.1z"/>
	<path class="st0" d="M20.6,10.1C20.6,10.1,20.5,10.1,20.6,10.1c-3.4,2.6-9.3,9.1-7.5,10.9c2,1.8,4.6,2.8,7.5,2.8s5.5-1.1,7.5-2.8
		C29.9,19.1,24,12.7,20.6,10.1C20.6,10.1,20.6,10.1,20.6,10.1z"/>
</g>
<path class="st0" d="M27.9,32.2l1.3-1.8c-0.4-0.1-0.8-0.3-1.2-0.5c-0.4-0.3-0.6-0.7-0.5-1.2c0-0.5,0.2-0.9,0.6-1.1
	c0.5-0.3,1.1-0.4,1.7-0.4l0,0c2.3,0,2.9,1.2,3.3,1.7l1.2-1.7c-0.2-0.3-0.5-0.6-0.8-0.9c-0.8-0.6-2.1-1-3.8-1c-1.4,0-2.6,0.3-3.4,1
	c-0.8,0.6-1.3,1.6-1.2,2.6C25,30.5,26,31.6,27.9,32.2z M34.2,32.1c-0.6-0.5-1.4-0.9-2.6-1.2l-1.3,1.8c0.7,0.1,1.3,0.4,1.9,0.8
	c0.4,0.2,0.6,0.7,0.6,1.1c0,0.5-0.2,1-0.6,1.4c-0.6,0.3-1.2,0.5-1.9,0.5l0,0c-1.9,0-2.8-0.6-3.7-2.3l0,0L25.1,36
	c0.2,0.5,0.6,0.9,1,1.2c0.9,0.8,2.2,1.1,3.9,1.1c1.6,0,2.8-0.3,3.7-1s1.4-1.7,1.3-2.8C35.2,33.6,34.9,32.7,34.2,32.1L34.2,32.1z
	 M22.9,38.1h-0.6V25.6h0.6V38.1z M6.9,25.5c0.2,0,0.3,0.1,0.5,0.2c0.2,0.4,0.2,0.9,0,1.2c-0.1,0.2-0.3,0.2-0.5,0.2l0,0v-0.4l0,0
	c0.1,0,0.2,0,0.3-0.1c0.1-0.1,0.1-0.2,0.1-0.4c0-0.1,0-0.2-0.1-0.3c-0.1-0.1-0.1-0.1-0.2-0.1c-0.1,0-0.2,0-0.2,0.1
	c-0.1,0.1-0.1,0.2-0.1,0.3l0,0.2c0,0.2-0.1,0.3-0.2,0.5c-0.1,0.1-0.2,0.2-0.4,0.2S5.7,27.1,5.5,27c-0.1-0.2-0.2-0.4-0.2-0.6
	c0-0.2,0-0.4,0.2-0.6c0.1-0.2,0.3-0.2,0.5-0.2l0,0v0.4l0,0c-0.1,0-0.2,0.1-0.3,0.2c-0.1,0.1-0.1,0.2-0.1,0.3c0,0.1,0,0.2,0.1,0.3
	c0,0.1,0.1,0.1,0.2,0.1s0.2,0,0.2-0.1c0.1-0.1,0.1-0.2,0.1-0.3l0-0.2c0-0.2,0.1-0.3,0.2-0.5C6.6,25.5,6.7,25.5,6.9,25.5L6.9,25.5z
	 M6.5,36.6c-0.1,0.2-0.2,0.3-0.2,0.5l0,0.2c0,0.1-0.1,0.2-0.1,0.3c0,0.1-0.1,0.1-0.2,0.1s-0.2,0-0.2-0.1c-0.1-0.1-0.1-0.2-0.1-0.3
	c0-0.1,0-0.2,0.1-0.3c0.1-0.1,0.2-0.1,0.2-0.1l0,0v-0.4l0,0c-0.2,0-0.4,0.1-0.5,0.2c-0.1,0.2-0.2,0.4-0.2,0.6c0,0.2,0,0.4,0.2,0.6
	C5.6,38,5.8,38.1,5.9,38c0.2,0,0.3-0.1,0.4-0.2c0.1-0.2,0.2-0.3,0.2-0.5l0-0.2c0-0.1,0.1-0.2,0.1-0.3c0-0.1,0.1-0.1,0.2-0.1
	c0.1,0,0.2,0,0.2,0.1C7.2,37,7.2,37,7.2,37.2c0,0.1,0,0.2-0.1,0.4c-0.1,0.1-0.2,0.1-0.3,0.1l0,0V38l0,0C7,38,7.2,38,7.3,37.8
	c0.2-0.4,0.2-0.9,0-1.2c-0.1-0.2-0.3-0.2-0.5-0.2C6.7,36.4,6.6,36.4,6.5,36.6L6.5,36.6z M7.5,31.6V32l0,0c-0.1,0-0.2,0.1-0.2,0.1H7
	c-0.1,0-0.2,0-0.2,0.1c-0.1,0.1-0.1,0.2-0.1,0.2v0.5h0.8v0.4H5.5v-0.9c0,0,0-0.1,0-0.1v0c0-0.1,0-0.3,0.1-0.4l0,0c0,0,0-0.1,0.1-0.1
	c0.1-0.1,0.2-0.2,0.4-0.2c0.2,0,0.4,0.1,0.5,0.3c0-0.1,0.1-0.2,0.2-0.2c0.1-0.1,0.2-0.1,0.3-0.1l0.3,0C7.3,31.7,7.4,31.7,7.5,31.6
	L7.5,31.6z M6.1,32.1c-0.1,0-0.2,0-0.2,0.1c-0.1,0.1-0.1,0.2-0.1,0.2v0.5h0.6v-0.5c0-0.1,0-0.2-0.1-0.2C6.2,32.1,6.2,32,6.1,32.1
	L6.1,32.1z M5.5,30.8h2v-0.4h-2V30.8z M5.8,28H5.5v1.5h2V28H7.1v1.1H6.6v-1H6.3v1H5.8V28z M5.8,34.1H5.5v1.5h2v-1.5H7.1v1.1H6.6v-1
	H6.3v1H5.8V34.1z M8.3,38.1h2.7l2-2.8l-1.4-1.8L8.3,38.1z M20.2,25.6h-2.7l-1.7,2.3l1.4,1.8L20.2,25.6z M11.4,25.6H8.7l9.1,12.5h2.7
	L11.4,25.6z"/>
</svg>
